<?xml version="1.0" encoding="UTF-8" standalone="no"?>
<!-- Created with Inkscape (http://www.inkscape.org/) -->

<svg
   xmlns:dc="http://purl.org/dc/elements/1.1/"
   xmlns:cc="http://creativecommons.org/ns#"
   xmlns:rdf="http://www.w3.org/1999/02/22-rdf-syntax-ns#"
   xmlns:svg="http://www.w3.org/2000/svg"
   xmlns="http://www.w3.org/2000/svg"
   xmlns:sodipodi="http://sodipodi.sourceforge.net/DTD/sodipodi-0.dtd"
   xmlns:inkscape="http://www.inkscape.org/namespaces/inkscape"
   version="1.1"
   id="svg64"
   width="400"
   height="91.333336"
   viewBox="0 0 400 91.333336"
   sodipodi:docname="immunobase_traced_190816.svg"
   inkscape:version="0.92.2 5c3e80d, 2017-08-06">
  <metadata
     id="metadata70">
    <rdf:RDF>
      <cc:Work
         rdf:about="">
        <dc:format>image/svg+xml</dc:format>
        <dc:type
           rdf:resource="http://purl.org/dc/dcmitype/StillImage" />
        <dc:title></dc:title>
      </cc:Work>
    </rdf:RDF>
  </metadata>
  <defs
     id="defs68" />
  <sodipodi:namedview
     pagecolor="#ffffff"
     bordercolor="#666666"
     borderopacity="1"
     objecttolerance="10"
     gridtolerance="10"
     guidetolerance="10"
     inkscape:pageopacity="0"
     inkscape:pageshadow="2"
     inkscape:window-width="1250"
     inkscape:window-height="698"
     id="namedview66"
     showgrid="false"
     inkscape:zoom="2.84"
     inkscape:cx="204.02702"
     inkscape:cy="31.582161"
     inkscape:window-x="0"
     inkscape:window-y="0"
     inkscape:window-maximized="0"
     inkscape:current-layer="svg64" />
  <g
     id="g100"
     transform="translate(1.0563373,2.1126771)">
    <path
       style="fill:#c5d997;stroke-width:0.66666669"
       d="m 294.00277,81.003342 c -0.66621,-0.80274 -0.61724,-1.317046 0.2517,-2.643213 1.5241,-2.326073 1.48646,-2.360127 -2.60872,-2.360127 -6.96465,0 -5.66713,-3.45894 1.50048,-4 6.04781,-0.456533 6.59066,-2 0.70341,-2 -4.98977,0 -7.36341,-1.176013 -5.90951,-2.92786 0.64926,-0.782319 2.05233,-1.07214 5.19038,-1.07214 7.10866,0 5.75908,-2.175259 -1.73538,-2.797084 -7.75172,-0.64317 -9.92318,-4.132021 -2.64542,-4.250338 4.11077,-0.06683 4.41699,-0.202229 2.9562,-1.307114 -0.71174,-0.538339 -2.28067,-0.978798 -3.4865,-0.978798 -1.20584,0 -3.35564,-0.465427 -4.77736,-1.034283 -2.8403,-1.136464 -11.10872,-1.110946 -11.10872,0.03428 0,0.366667 1.73844,0.757039 3.8632,0.867494 3.34114,0.173688 3.96248,0.418763 4.59801,1.81359 1.31193,2.879365 -0.13824,3.65225 -6.85271,3.65225 -5.2933,0 -5.97086,0.141902 -6.63906,1.390431 -0.9993,1.867229 -0.95718,1.88643 5.08515,2.31792 7.03865,0.502637 8.05561,0.748584 8.56304,2.070922 0.89332,2.327954 -1.17596,3.138074 -7.59503,2.97344 -5.16642,-0.132506 -6.0226,-0.0013 -6.0226,0.923574 0,3.404867 3.15726,4.663207 6.66667,2.657047 3.44366,-1.968574 7.95629,-0.732434 6.94517,1.90248 -0.47601,1.24048 -4.21152,2.42176 -7.67518,2.427133 -1.54646,0.0027 -2.82473,0.47672 -3.60332,1.337053 -2.32596,2.57016 -4.25553,1.497254 -6.95245,-3.865813 -1.71363,-3.407707 -2.70951,-3.907374 -5.49122,-2.755154 -19.17782,7.943714 -31.4407,-21.812499 -12.99872,-31.541745 8.39305,-4.42783 23.10905,2.21068 23.10905,10.424676 0,1.4117 1.10797,1.912836 2.48622,1.124524 3.14173,-1.796952 3.15048,-1.749798 -1.11566,-6.015932 -7.32974,-7.329741 -8.49141,-13.510637 -4.20649,-22.381415 2.75398,-5.701374 6.50918,-6.388658 6.04985,-1.107256 -0.2132,2.451447 -0.2132,2.451447 4.56141,2.646142 9.06971,0.369838 8.43409,3.310637 -0.78035,3.610326 -7.90744,0.25718 -7.83002,1.470939 0.10965,1.719175 9.89418,0.309345 9.55197,3.656746 -0.41323,4.042136 -7.71696,0.298444 -7.66495,1.049206 0.14194,2.048853 6.61388,0.846887 7.44802,1.209214 6.78165,2.945758 -0.6011,1.566442 -3.16136,2.049718 -6.44428,1.216424 -3.32852,-0.844868 -3.79949,-0.577146 -2.16395,1.2301 2.393,2.644234 8.43093,5.430541 9.609,4.434235 0.578,-0.488827 2.02591,-1.27458 3.21758,-1.746119 2.48672,-0.98399 2.55565,-1.160769 1.08581,-2.784925 -1.94309,-2.147083 -0.71059,-3.243991 3.64497,-3.243991 2.63562,0 4.20592,-0.321275 4.74498,-0.970797 1.37734,-1.659594 0.1078,-2.362536 -4.26681,-2.362536 -7.41352,0 -7.85364,-2.895601 -0.55155,-3.628782 8.99602,-0.903265 9.61532,-2.704552 0.92984,-2.704552 -8.31214,0 -9.3896,-3.410121 -1.2016,-3.802987 3.98536,-0.19122 4.11621,-0.255819 4.4501,-2.197013 0.94512,-5.494651 5.97096,-1.158847 8.04724,6.942358 1.46518,5.716842 -3.2069,12.646495 -11.79382,17.492654 -4.2833,2.417343 -4.26414,3.007866 0.16964,5.231656 15.09572,7.571334 17.11697,12.77314 9.39035,24.166667 -2.65522,3.91534 -4.26563,4.701193 -5.81305,2.836673 z M 255.28621,67.024369 c 7.04356,-3.642364 6.35186,-16.016252 -1.12712,-20.163156 -2.8409,-1.57521 -2.8409,-1.57521 -5.77676,0.145318 -11.07373,6.489639 -4.39322,25.859798 6.90388,20.017838 z M 29.747511,78.318942 c -0.953291,-0.953293 -1.080844,-3.693866 -1.080844,-23.222666 0,-22.141822 0,-22.141822 -3.662291,-25.75862 C 21.342085,25.720857 21.342085,25.720857 18.809601,28.193763 15.334353,31.587252 14.625773,31.400084 8.611506,25.500001 1.958665,18.973467 1.9599199,18.81887 8.7191333,12.241169 15.48309,5.6588523 13.954823,5.2267097 26.579589,17.291508 37.348759,27.583015 37.348759,27.583015 37.17438,53.291509 37,79.000002 37,79.000002 33.914178,79.199896 c -2.165115,0.140253 -3.40831,-0.1226 -4.166667,-0.880954 z M 41.333333,53.914136 c 0,-29.356097 -1.652317,-24.394327 12.792277,-38.414136 10.003593,-9.7094077 8.412779,-9.4537886 15.461097,-2.484359 7.028713,6.950043 7.02622,6.740848 0.16152,13.56989 -6.126862,6.095035 -6.960672,6.335189 -9.893628,2.849569 -2.707416,-3.217581 -3.0567,-3.185821 -6.919714,0.629206 -3.601552,3.556815 -3.601552,3.556815 -3.601552,26.008263 0,25.127287 0.405592,23.260767 -5.054524,23.260767 -2.945476,0 -2.945476,0 -2.945476,-25.4192 z M 172.90107,73.963129 c -2.2619,-0.681947 -5.9376,-4.42902 -6.94573,-7.080587 -0.85413,-2.246522 -0.79657,-23.310699 0.0681,-24.926368 0.88835,-1.659892 4.06487,-1.700227 5.53989,-0.07034 0.92814,1.025584 1.10333,2.882807 1.10333,11.696969 0,11.935119 0.72681,13.761084 5.4697,13.741437 6.82308,-0.02827 7.86363,-2.041287 7.86363,-15.2128 0,-10.85449 0.20159,-11.444767 3.90855,-11.444767 3.2013,0 3.42478,1.087161 3.42478,16.659761 0,8.010488 -0.18209,15.03906 -0.40466,15.619046 -0.5929,1.545081 -4.21672,1.329487 -6.01266,-0.35772 -1.50327,-1.41224 -1.50327,-1.41224 -3.83834,0.03093 -2.69845,1.667733 -7.15259,2.256187 -10.1766,1.344466 z m 139.43226,-0.264014 c -5.47148,-2.35944 -7.69028,-8.425734 -5.00615,-13.687051 2.32793,-4.563133 5.67476,-6.35822 14.55736,-7.807921 2.82635,-0.461281 3.35309,-1.843778 1.46729,-3.851125 -2.44544,-2.60305 -4.92648,-3.329531 -7.31002,-2.140467 -4.1013,2.046 -5.93789,2.078272 -6.83013,0.120016 -3.06067,-6.717432 14.33682,-8.603744 20.20553,-2.190772 2.18826,2.391201 2.55456,4.606338 2.62231,15.858207 0.0298,4.95 0.29542,9.6 0.59025,10.333333 1.34092,3.335274 -4.51777,5.467447 -6.46327,2.3522 -0.81472,-1.304573 -0.83856,-1.304046 -3.16641,0.06941 -2.83392,1.672053 -7.9323,2.123333 -10.66676,0.944166 z m 10.47434,-7.630889 c 2.32145,-2.074219 3.05832,-6.468895 1.36808,-8.159141 -1.03894,-1.038941 -7.15837,0.862354 -9.32414,2.896995 -5.09082,4.782571 2.7148,9.945209 7.95606,5.262146 z m 19.90789,8.067389 c -4.26273,-0.683013 -6.04932,-4.05526 -3.41263,-6.441433 1.09314,-0.98928 1.64589,-1.059588 3.43282,-0.43666 9.15328,3.190847 13.94089,-2.774037 5.55758,-6.924187 -10.1625,-5.030927 -12.33998,-10.472136 -6.61831,-16.538179 4.70357,-4.986662 16.99165,-4.857558 16.99165,0.178522 0,3.330093 -2.39,4.226464 -6.12256,2.296277 -1.92118,-0.993476 -2.1676,-0.980321 -3.74868,0.200124 -4.06791,3.037133 -3.02768,5.474121 3.32885,7.798641 15.34704,5.612257 7.32632,22.548322 -9.40872,19.866895 z m 32.61346,-0.125806 c -11.86382,-3.36766 -15.63407,-16.939341 -7.75424,-27.912749 8.04854,-11.208354 25.09189,-5.644445 25.09189,8.191407 0,4.853282 -0.45256,5.044868 -11.91683,5.044868 -10.25267,0 -10.53598,0.106513 -8.887,3.341205 2.36397,4.637229 5.61557,5.609302 15.64014,4.675649 2.94524,-0.274307 2.99807,-0.23838 3.27977,2.23016 0.41932,3.67452 -8.80204,6.317613 -15.45373,4.42946 z m 10.00431,-22.053635 c 0,-3.677377 -4.79462,-7.283881 -7.94736,-5.977977 -3.06014,1.267551 -6.69956,5.819323 -5.56226,6.956627 1.26529,1.265286 13.50962,0.378294 13.50962,-0.97865 z M 56.830478,73.230482 C 56.216139,72.616142 56,68.440355 56,57.185709 c 0,-17.469347 0.345877,-18.413385 5.608655,-15.30827 1.294726,0.763908 2.522662,1.116099 2.728745,0.782648 1.954796,-3.162925 10.968693,-2.946481 14.89546,0.357674 2.438,2.05144 2.334713,2.057692 5.306233,-0.321235 6.584734,-5.271578 16.175737,-1.746861 17.522197,6.439453 0.87024,5.290897 0.72585,23.14355 -0.19462,24.064023 -1.18387,1.183867 -4.97789,1.007073 -5.46201,-0.254527 C 96.182093,72.365489 96,68.125295 96,63.522823 96,50.893842 94.611833,47.333335 89.688067,47.333335 c -5.546687,0 -6.354734,1.831458 -6.354734,14.403146 0,11.629148 -0.189673,12.263521 -3.666666,12.263521 C 76.185787,74.000002 76,73.373262 76,61.630684 76,48.80965 75.35282,47.333335 69.732427,47.333335 c -5.525978,0 -6.658176,2.501558 -7.06576,15.611595 -0.333334,10.721739 -0.333334,10.721739 -2.669522,10.918885 -1.284904,0.108427 -2.709904,-0.176573 -3.166667,-0.633333 z m 54.649292,-0.06381 c -1.13055,-1.37842 -1.33289,-30.070412 -0.2215,-31.409555 1.20125,-1.447417 2.86436,-1.37695 4.8776,0.206668 1.64332,1.292633 1.66014,1.291482 4.86956,-0.333333 4.60234,-2.330004 10.05906,-1.513974 12.90953,1.930567 1.21573,1.469105 1.90509,1.397852 4.35545,-0.450194 4.59523,-3.465695 8.99822,-3.933286 12.79234,-1.358528 5.28984,3.589779 6.27058,6.781417 6.27058,20.406306 0,11.234189 -0.19366,11.841402 -3.77654,11.841402 -3.17966,0 -3.55679,-1.307727 -3.55679,-12.333334 0,-12.172972 -0.89051,-14.266615 -6.08756,-14.312131 -5.33765,-0.04675 -6.57911,2.667498 -6.57911,14.384165 0,11.93014 -0.0817,12.2613 -3.0237,12.2613 -4.03054,0 -4.30963,-0.83682 -4.30963,-12.921912 0,-12.693506 -0.42651,-13.744755 -5.57643,-13.744755 -5.48984,0 -7.09024,3.531015 -7.09024,15.643511 0,4.902756 -0.18209,9.388643 -0.40466,9.968629 -0.49099,1.279507 -4.4491,1.440187 -5.4489,0.221194 z m 89.89641,-0.419934 c -1.43806,-2.687046 -0.92257,-30.585794 0.57999,-31.389944 1.86202,-0.996519 3.49156,-0.828876 5.27467,0.542642 1.51085,1.162098 1.65232,1.159508 4.14939,-0.07594 C 222.99321,36.077844 230,43.520735 230,61.602148 c 0,10.845854 -0.53426,12.397854 -4.26781,12.397854 -4.02271,0 -4.39886,-1.117687 -4.39886,-13.070823 0,-12.764162 -0.31948,-13.595844 -5.2228,-13.595844 -6.60248,0 -7.68638,2.093696 -8.11053,15.666667 -0.33333,10.666667 -0.33333,10.666667 -3.12382,10.869573 -2.22893,0.162074 -2.93326,-0.06387 -3.5,-1.12284 z"
       id="path104"
       inkscape:connector-curvature="0" />
    <path
       style="fill:#32668f;stroke-width:0.66666669"
       d="M 263.82848,77.639496 C 262.82281,75.974556 262,74.339462 262,74.005955 c 0,-0.3335 -0.50231,-0.887473 -1.11624,-1.231046 -0.98229,-0.54972 -0.82267,-0.967654 1.33015,-3.482747 3.19084,-3.727773 5.11942,-7.789357 5.11942,-10.781452 0,-2.998384 0.55794,-4.510708 1.66414,-4.510708 3.91904,0 3.98881,-2.491982 0.17651,-6.304279 -7.78001,-7.780019 -8.91354,-14.817046 -3.86151,-23.972677 2.33294,-4.227927 5.87572,-3.711999 5.0416,0.734201 -0.41449,2.20942 -0.41449,2.20942 3.89453,2.20942 4.82329,0 6.41807,0.411154 6.41807,1.65466 0,1.077328 -3.01508,1.678674 -8.41667,1.678674 -3.18826,0 -4.25,0.232003 -4.25,0.928674 0,1.464933 1.83032,1.808969 7.08883,1.332455 4.23711,-0.383956 4.94108,-0.292242 5.31914,0.692986 0.74634,1.944922 -0.81103,2.57471 -6.54024,2.644823 -8.3329,0.101976 -7.88983,1.850315 0.66912,2.64033 5.81278,0.536535 6.1907,0.662509 6,2 -0.18802,1.318724 -0.5715,1.420469 -5.03685,1.336376 -6.42372,-0.120973 -5.85023,1.300672 2.33333,5.784235 5.13494,2.813299 4.26392,7.521652 -1.33333,7.207393 -4.48609,-0.251872 -6.50749,1.560024 -2.16667,1.942101 5.9507,0.523778 6.42609,0.755742 6.2061,3.028234 -0.2061,2.12906 -0.2061,2.12906 -5.73685,1.8869 -4.58005,-0.200534 -5.75466,-0.03953 -6.83333,0.936658 -2.74974,2.488475 -1.3874,3.593043 4.58528,3.717713 6.14896,0.128349 7.7788,0.671923 7.7788,2.594336 0,1.649347 -0.0446,1.661354 -6.87072,1.85052 -6.74737,0.186987 -6.8626,0.216907 -6.41841,1.666667 0.84289,2.751 1.70532,3.28544 4.58529,2.84144 8.47956,-1.307267 9.03718,-1.280593 9.03718,0.432214 0,1.751153 -3.7441,3.202613 -8.26128,3.202613 -1.23317,0 -2.6156,0.45 -3.07206,1 -1.58254,1.906853 -3.57088,1.174647 -5.50485,-2.027173 z M 59.658016,28.657808 c -2.612581,-2.675525 -2.612581,-2.675525 3.350802,-8.666667 6.861395,-6.893334 6.728215,-6.848403 9.898402,-3.339381 2.99554,3.315705 2.865487,3.677073 -3.537953,9.830518 -5.861446,5.632613 -6.250413,5.71975 -9.711251,2.17553 z M 8.8186147,25.152742 C 2.6153415,18.917076 2.4112513,18.281055 5.6898641,15.402395 c 3.0667132,-2.69261 2.4738492,-2.937169 9.1573689,3.777461 6.64154,6.672455 6.628869,6.637995 3.462903,9.41775 -3.214974,2.822784 -3.27986,2.799235 -9.4915213,-3.444864 z"
       id="path102"
       inkscape:connector-curvature="0" />
  </g>
</svg>
